<svg width="133" height="29" viewBox="0 0 133 29" fill="none" xmlns="http://www.w3.org/2000/svg">
<path d="M123.943 27.5914C120.5 27.5914 117.584 25.2651 117.584 19.9301C117.584 14.5021 120.562 12.0828 123.788 12.0828C126.114 12.0828 127.541 13.3545 128.037 14.5952H128.099V12.3929H133V27.2813H128.099V25.3272H128.068C127.386 26.5989 126.207 27.5914 123.943 27.5914ZM122.516 19.9922C122.516 22.2875 123.757 23.311 125.308 23.311C126.579 23.311 128.037 22.6597 128.099 20.0852V19.4959C128.006 17.2316 126.61 16.3632 125.339 16.3632C123.757 16.3632 122.516 17.6659 122.516 19.9922Z" fill="#17293A"/>
<path d="M88.3493 27.2813V12.3929H93.25V15.4637H93.3121C93.9634 13.4785 95.2662 12.0828 97.2513 12.0828C97.8406 12.0828 98.2128 12.1448 98.523 12.2999V17.5108C97.8096 17.0766 97.0342 16.9215 96.2897 16.9215C94.8319 16.9215 93.5292 17.5728 93.25 19.4959V27.2813H88.3493Z" fill="#17293A"/>
<path d="M111.096 18.6583C111.096 16.8904 110.29 16.239 109.08 16.239C107.498 16.239 106.661 17.2626 106.382 19.744V27.2812H101.481V4.73157H106.382V14.9053H106.475C107.374 13.2613 108.491 12.0827 110.972 12.0827C113.919 12.0827 115.997 13.8196 115.997 17.3866V27.2812H111.096V18.6583Z" fill="#17293A"/>
<path d="M76.0322 27.5914C72.5892 27.5914 69.6736 25.2651 69.6736 19.9301C69.6736 14.5021 72.6513 12.0828 75.8771 12.0828C78.2034 12.0828 79.6302 13.3545 80.1264 14.5952H80.1885V12.3929H85.0892V27.2813H80.1885V25.3272H80.1575C79.4751 26.5989 78.2964 27.5914 76.0322 27.5914ZM74.6054 19.9922C74.6054 22.2875 75.8461 23.311 77.3969 23.311C78.6686 23.311 80.1264 22.6597 80.1885 20.0852V19.4959C80.0954 17.2316 78.6996 16.3632 77.4279 16.3632C75.8461 16.3632 74.6054 17.6659 74.6054 19.9922Z" fill="#17293A"/>
<path d="M58.0762 27.5914C55.2226 27.5914 52.8963 27.0331 51.1904 26.1336V19.806C52.1209 20.8296 54.2301 22.5046 58.7586 22.5046C61.6432 22.5046 62.5117 21.6981 62.5117 20.7056C62.5117 17.1386 51.2834 19.651 51.2834 11.5554C51.2834 7.98845 53.4546 5.22791 59.7201 5.22791C63.1321 5.22791 65.2412 6.06537 66.3579 6.96488L66.1718 12.7961C65.3033 11.4934 62.5737 10.1597 59.7822 10.1597C57.58 10.1597 57.0216 10.9971 57.0216 11.7105C57.0216 14.7812 67.3504 12.4549 67.3504 20.5815C67.3504 24.8619 64.4658 27.5914 58.0762 27.5914Z" fill="#17293A"/>
<path fill-rule="evenodd" clip-rule="evenodd" d="M33.4036 9.65542C33.0587 1.06362 24.1174 -0.270124 18.3866 0.0400488C16.2905 0.133101 4.37775 1.96312 4.48388 4.28942C4.48388 4.94079 5.14717 6.3986 5.837 6.36758C5.99618 6.36758 6.57983 6.02643 6.73906 5.93336L6.73908 5.93334C9.65758 4.25841 15.3619 2.9867 18.6784 2.80059C18.8376 2.80059 18.9968 2.83161 18.9968 3.04873C19.0219 3.57789 16.2347 8.00093 13.3006 12.657C10.0433 17.826 6.60504 23.2821 6.63296 24.0164C6.65949 24.978 2.75931 25.4743 1.98989 25.5363C1.02863 25.5757 0.946347 25.3395 0.884558 25.1621C0.849136 25.0603 0.82045 24.978 0.636764 24.978C0.318382 25.009 0 25.4743 0 25.8154C0.0795955 27.6145 1.19393 28.4209 2.62665 28.3279C6.60642 28.1417 33.7485 18.8986 33.4036 9.65542ZM31.3606 8.81795C31.5729 14.7733 14.2741 22.2485 9.89637 23.241C10.2943 21.9073 19.4478 7.17404 20.4826 6.3986C21.0132 5.99538 21.5969 5.4991 21.5704 4.69265C21.5438 3.91722 21.3846 3.32789 20.9601 2.80059C25.046 2.73856 31.2014 4.81672 31.3606 8.81795ZM32.2699 22.931C32.234 22.9925 32.1962 23.0585 32.1566 23.1277C31.7563 23.8269 31.1682 24.854 30.4923 24.854C30.2535 24.854 30.0147 24.73 29.7759 24.4818C28.7695 23.4229 30.0298 21.6109 30.7284 20.6064C30.755 20.5681 30.7808 20.531 30.8056 20.4952C30.8163 20.4798 30.8268 20.4646 30.8372 20.4496C31.2362 19.8592 31.6513 19.2603 32.0715 18.654L32.0716 18.6539C33.4397 16.68 34.8618 14.6283 35.9578 12.5402C36.3558 11.7647 37.2048 10.462 38.0538 10.462C38.3722 10.462 38.7171 10.6481 39.009 11.1134C39.2573 11.5052 39.279 11.8156 39.2944 12.035C39.3118 12.2844 39.321 12.4161 39.6457 12.4161C39.896 12.4161 40.361 12.3248 41.1911 12.1619L41.1922 12.1617C41.3298 12.1347 41.4773 12.1057 41.6356 12.0749C41.7149 12.0625 41.8069 12.0465 41.9087 12.0287L41.9088 12.0287C42.3181 11.9572 42.8874 11.8578 43.4398 11.8578C44.448 11.8578 45.4562 12.1369 45.5623 13.3156C45.6419 14.1531 45.0848 14.4942 44.5806 14.4942C44.3419 14.4942 44.1296 14.4012 43.9969 14.2461C43.7847 13.998 43.6255 13.9049 43.4133 13.9049C43.2967 13.9049 43.1517 13.9382 42.9679 13.9803L42.9678 13.9803C42.9006 13.9958 42.8281 14.0124 42.75 14.029C37.4436 15.0215 35.1884 17.9992 32.2699 22.931ZM42.5085 24.949C42.5085 23.6773 43.782 22.8398 44.7637 22.8398C45.3739 22.8398 45.4801 24.4217 45.4801 24.949C45.4801 25.6004 44.578 26.8721 43.9943 26.8721C43.2248 26.8721 42.5085 25.8175 42.5085 24.949Z" fill="#17293A"/>
</svg>
