<svg width="24" height="24" viewBox="0 0 24 24" fill="none" xmlns="http://www.w3.org/2000/svg">
<mask id="mask0_2174_3268" style="mask-type:alpha" maskUnits="userSpaceOnUse" x="0" y="0" width="24" height="24">
<rect width="24" height="24" fill="#D9D9D9"/>
</mask>
<g mask="url(#mask0_2174_3268)">
<path d="M7 9H17V7H7V9ZM5 21C4.45 21 3.97917 20.8042 3.5875 20.4125C3.19583 20.0208 3 19.55 3 19V5C3 4.45 3.19583 3.97917 3.5875 3.5875C3.97917 3.19583 4.45 3 5 3H19C19.55 3 20.0208 3.19583 20.4125 3.5875C20.8042 3.97917 21 4.45 21 5V11.45C20.6167 10.7 20.0667 10.1042 19.35 9.6625C18.6333 9.22083 17.85 9 17 9C16.25 9 15.55 9.175 14.9 9.525C14.25 9.875 13.7083 10.3667 13.275 11H7V13H12.525C12.4917 13.3333 12.4917 13.6667 12.525 14C12.5583 14.3333 12.6333 14.6667 12.75 15H7V17H10.925C10.6083 17.3667 10.375 17.7708 10.225 18.2125C10.075 18.6542 10 19.1167 10 19.6V21H5ZM12 21V19.6C12 19.2 12.1042 18.8292 12.3125 18.4875C12.5208 18.1458 12.8167 17.9 13.2 17.75C13.8 17.5 14.4208 17.3125 15.0625 17.1875C15.7042 17.0625 16.35 17 17 17C17.65 17 18.2958 17.0625 18.9375 17.1875C19.5792 17.3125 20.2 17.5 20.8 17.75C21.1833 17.9 21.4792 18.1458 21.6875 18.4875C21.8958 18.8292 22 19.2 22 19.6V21H12ZM17 16C16.3 16 15.7083 15.7583 15.225 15.275C14.7417 14.7917 14.5 14.2 14.5 13.5C14.5 12.8 14.7417 12.2083 15.225 11.725C15.7083 11.2417 16.3 11 17 11C17.7 11 18.2917 11.2417 18.775 11.725C19.2583 12.2083 19.5 12.8 19.5 13.5C19.5 14.2 19.2583 14.7917 18.775 15.275C18.2917 15.7583 17.7 16 17 16Z" fill="#1C1B1F"/>
</g>
</svg>
